<svg xmlns="http://www.w3.org/2000/svg" xmlns:xlink="http://www.w3.org/1999/xlink" width="500" zoomAndPan="magnify" viewBox="0 0 375 374.999991" height="500" preserveAspectRatio="xMidYMid meet" version="1.0"><defs><g/><clipPath id="5d5f2a1145"><path d="M 153 101.957031 L 222.46875 101.957031 L 222.46875 206.207031 L 153 206.207031 Z M 153 101.957031 " clip-rule="nonzero"/></clipPath></defs><g clip-path="url(#5d5f2a1145)"><path fill="#9365b8" d="M 210.519531 206.207031 C 212.433594 200.121094 213.039062 193.785156 212.363281 187.585938 L 212.363281 187.328125 L 162.875 187.328125 L 162.875 187.585938 C 162.222656 193.785156 162.804688 200.148438 164.71875 206.207031 L 154.867188 206.207031 C 153.210938 199.726562 152.746094 193.0625 153.46875 186.511719 C 154.261719 179.054688 156.640625 171.710938 160.46875 165.046875 C 163.972656 159.035156 168.078125 154.605469 172.515625 151.179688 C 173.566406 150.316406 174.710938 149.523438 175.828125 148.730469 C 173.84375 147.542969 172.046875 146.097656 170.460938 144.441406 C 166.164062 139.875 163.574219 133.816406 163.574219 127.125 C 163.574219 120.53125 166.164062 114.378906 170.460938 109.878906 C 174.683594 105.3125 180.660156 102.421875 187.339844 102.027344 L 187.59375 101.957031 L 187.851562 102.027344 C 194.527344 102.421875 200.480469 105.335938 204.730469 109.882812 C 209.027344 114.378906 211.617188 120.507812 211.617188 127.128906 C 211.617188 133.792969 209.027344 139.875 204.730469 144.445312 C 203.144531 146.101562 201.34375 147.546875 199.363281 148.734375 C 200.484375 149.527344 201.601562 150.316406 202.675781 151.179688 C 207.113281 154.605469 211.21875 159.035156 214.722656 165.046875 C 218.550781 171.714844 220.929688 179.054688 221.722656 186.515625 C 222.449219 193.0625 221.980469 199.730469 220.324219 206.207031 Z M 210.195312 177.796875 C 209.261719 175.023438 208 172.390625 206.550781 169.800781 C 203.703125 164.910156 200.390625 161.339844 196.886719 158.570312 C 193.96875 156.261719 190.792969 154.398438 187.617188 152.8125 C 184.445312 154.398438 181.339844 156.238281 178.351562 158.570312 C 174.847656 161.339844 171.535156 164.90625 168.683594 169.800781 C 167.238281 172.390625 165.976562 175.023438 165.042969 177.796875 Z M 177.347656 137.964844 C 179.941406 140.738281 183.554688 142.53125 187.59375 142.859375 C 191.632812 142.53125 195.277344 140.738281 197.84375 137.964844 C 200.480469 135.121094 202.140625 131.371094 202.140625 127.125 C 202.140625 122.953125 200.480469 119.203125 197.84375 116.359375 C 195.25 113.585938 191.632812 111.792969 187.59375 111.464844 C 183.554688 111.792969 179.914062 113.585938 177.347656 116.359375 C 174.710938 119.203125 173.050781 122.953125 173.050781 127.125 C 173.078125 131.347656 174.710938 135.121094 177.347656 137.964844 Z M 177.347656 137.964844 " fill-opacity="1" fill-rule="nonzero"/></g><g fill="#050a30" fill-opacity="1"><g transform="translate(124.198069, 248.893299)"><g><path d="M 0 0 L 5.125 -24.125 L 15.359375 -24.125 C 16.921875 -24.125 18.289062 -23.96875 19.46875 -23.65625 C 20.644531 -23.34375 21.617188 -22.816406 22.390625 -22.078125 C 23.171875 -21.335938 23.753906 -20.375 24.140625 -19.1875 C 24.535156 -18 24.734375 -16.539062 24.734375 -14.8125 C 24.734375 -12.96875 24.5 -11.15625 24.03125 -9.375 C 23.5625 -7.601562 22.78125 -6.019531 21.6875 -4.625 C 20.601562 -3.238281 19.179688 -2.117188 17.421875 -1.265625 C 15.660156 -0.421875 13.488281 0 10.90625 0 Z M 10.40625 -2.65625 C 11.25 -2.65625 11.992188 -3.003906 12.640625 -3.703125 C 13.285156 -4.398438 13.84375 -5.285156 14.3125 -6.359375 C 14.78125 -7.441406 15.171875 -8.632812 15.484375 -9.9375 C 15.796875 -11.238281 16.046875 -12.5 16.234375 -13.71875 C 16.429688 -14.9375 16.570312 -16.023438 16.65625 -16.984375 C 16.75 -17.953125 16.796875 -18.632812 16.796875 -19.03125 C 16.796875 -19.820312 16.632812 -20.4375 16.3125 -20.875 C 16 -21.320312 15.453125 -21.546875 14.671875 -21.546875 L 12.84375 -21.546875 L 8.78125 -2.65625 Z M 10.40625 -2.65625 "/></g></g></g><g fill="#050a30" fill-opacity="1"><g transform="translate(149.348931, 248.893299)"><g><path d="M 5.125 -24.125 L 21.125 -24.125 L 20.515625 -21.234375 L 12.765625 -21.234375 L 11.171875 -13.90625 L 17.671875 -13.90625 L 17.0625 -11.0625 L 10.5625 -11.0625 L 8.8125 -2.921875 L 16.5625 -2.921875 L 16 0 L 0 0 Z M 5.125 -24.125 "/></g></g></g><g fill="#050a30" fill-opacity="1"><g transform="translate(168.45903, 248.893299)"><g><path d="M 20.25 0 L 11.359375 0 L 7.140625 -17.4375 L 3.421875 0 L 0 0 L 5.125 -24.125 L 14.21875 -24.125 L 18.203125 -6.453125 L 21.96875 -24.125 L 25.453125 -24.125 Z M 20.25 0 "/></g></g></g><g fill="#050a30" fill-opacity="1"><g transform="translate(192.926027, 248.893299)"><g><path d="M 20.25 0 L 11.359375 0 L 7.140625 -17.4375 L 3.421875 0 L 0 0 L 5.125 -24.125 L 14.21875 -24.125 L 18.203125 -6.453125 L 21.96875 -24.125 L 25.453125 -24.125 Z M 20.25 0 "/></g></g></g><g fill="#050a30" fill-opacity="1"><g transform="translate(217.393024, 248.893299)"><g><path d="M 8.203125 0 L 0 0 L 5.125 -24.125 L 13.375 -24.125 Z M 8.203125 0 "/></g></g></g><g fill="#050a30" fill-opacity="1"><g transform="translate(229.778495, 248.893299)"><g><path d="M -0.109375 -3.453125 L 12.390625 -21.234375 L 2.8125 -21.234375 L 3.375 -24.125 L 22.15625 -24.125 L 21.8125 -20.90625 L 9.421875 -2.890625 L 19.421875 -2.890625 L 18.890625 0 L -0.796875 0 Z M -0.109375 -3.453125 "/></g></g></g></svg>